<?xml version="1.0" encoding="utf-8"?>
<!-- Generator: Adobe Illustrator 24.0.0, SVG Export Plug-In . SVG Version: 6.00 Build 0)  -->
<svg version="1.1" xmlns="http://www.w3.org/2000/svg" xmlns:xlink="http://www.w3.org/1999/xlink" x="0px" y="0px"
	 viewBox="0 0 64 64" enable-background="new 0 0 64 64" xml:space="preserve">
<g id="Captions">
</g>
<g id="Icons">
	<g>
		<g>
			<g>
				<path fill="#FAB400" d="M8,4h18v30c0,1.105-0.895,2-2,2H10c-1.105,0-2-0.895-2-2V4z"/>
			</g>
		</g>
		<g>
			<path fill="#DC9600" d="M26,25V11h-2.535C22.773,9.804,21.481,9,20,9h-8v12H8v4h5c-1.657,0-3,1.343-3,3c0,0.552,0.448,1,1,1h9
				c2.209,0,4-1.791,4-4H26z"/>
		</g>
		<g>
			<g>
				<g>
					<path fill="#F0C8A0" d="M23.465,10C22.773,8.804,21.481,8,20,8H6c-1.105,0-2,0.895-2,2c0,1.105,0.895,2,2,2
						c-1.105,0-2,0.895-2,2c0,1.105,0.895,2,2,2c-1.105,0-2,0.895-2,2c0,1.105,0.895,2,2,2c-1.105,0-2,0.895-2,2
						c0,1.105,0.895,2,2,2h7c-1.657,0-3,1.343-3,3c0,0.552,0.448,1,1,1h9c2.209,0,4-1.791,4-4h4V10H23.465z"/>
				</g>
				<g>
					<path fill="#D2AA82" d="M4.071,17.5C4.029,17.661,4,17.826,4,18c0,1.105,0.895,2,2,2h6v-1H6C5.069,19,4.294,18.361,4.071,17.5z
						"/>
				</g>
				<g>
					<path fill="#D2AA82" d="M4.071,13.5C4.029,13.661,4,13.826,4,14c0,1.105,0.895,2,2,2h6v-1H6C5.069,15,4.294,14.361,4.071,13.5z
						"/>
				</g>
				<g>
					<path fill="#D2AA82" d="M4.071,9.5C4.029,9.661,4,9.826,4,10c0,1.105,0.895,2,2,2h6v-1H6C5.069,11,4.294,10.361,4.071,9.5z"/>
				</g>
				<g>
					<path fill="#D2AA82" d="M4.071,21.5C4.029,21.661,4,21.826,4,22c0,1.105,0.895,2,2,2h14v-1H6C5.069,23,4.294,22.361,4.071,21.5
						z"/>
				</g>
				<g>
					<path fill="#D2AA82" d="M20.141,27H11c-0.425,0-0.783-0.267-0.928-0.641C10.027,26.566,10,26.779,10,27c0,0.552,0.448,1,1,1h9
						c2.209,0,4-1.791,4-4l0,0C23.554,25.722,22.003,27,20.141,27z"/>
				</g>
			</g>
			<g>
				<path fill="#00A0C8" d="M60,8v18H30c-1.105,0-2-0.895-2-2V10c0-1.105,0.895-2,2-2H60z"/>
			</g>
			<g>
				<path fill="#0082AA" d="M39,8v5c0-1.657-1.343-3-3-3c-0.552,0-1,0.448-1,1v9c0,2.209,1.791,4,4,4v2h14v-2.535
					c1.196-0.692,2-1.984,2-3.465v-8H43V8H39z"/>
			</g>
		</g>
		<g>
			<g>
				<g>
					<path fill="#F0C8A0" d="M54,4c-1.105,0-2,0.895-2,2c0-1.105-0.895-2-2-2s-2,0.895-2,2c0-1.105-0.895-2-2-2s-2,0.895-2,2
						c0-1.105-0.895-2-2-2s-2,0.895-2,2v7c0-1.657-1.343-3-3-3c-0.552,0-1,0.448-1,1v9c0,2.209,1.791,4,4,4v4h14v-4.535
						c1.196-0.692,2-1.984,2-3.465V6C56,4.895,55.105,4,54,4z"/>
				</g>
				<g>
					<path fill="#D2AA82" d="M46.5,4.071C46.339,4.029,46.174,4,46,4c-1.105,0-2,0.895-2,2v6h1V6C45,5.069,45.639,4.294,46.5,4.071z
						"/>
				</g>
				<g>
					<path fill="#D2AA82" d="M50.5,4.071C50.339,4.029,50.174,4,50,4c-1.105,0-2,0.895-2,2v6h1V6C49,5.069,49.639,4.294,50.5,4.071z
						"/>
				</g>
				<g>
					<path fill="#D2AA82" d="M54.5,4.071C54.339,4.029,54.174,4,54,4c-1.105,0-2,0.895-2,2v6h1V6C53,5.069,53.639,4.294,54.5,4.071z
						"/>
				</g>
				<g>
					<path fill="#D2AA82" d="M42.5,4.071C42.339,4.029,42.174,4,42,4c-1.105,0-2,0.895-2,2v14h1V6C41,5.069,41.639,4.294,42.5,4.071
						z"/>
				</g>
				<g>
					<path fill="#D2AA82" d="M37,20.141V11c0-0.425,0.267-0.783,0.641-0.928C37.434,10.027,37.221,10,37,10c-0.552,0-1,0.448-1,1v9
						c0,2.209,1.791,4,4,4l0,0C38.278,23.554,37,22.003,37,20.141z"/>
				</g>
			</g>
			<g>
				<path fill="#0A5078" d="M56,60H38V30c0-1.105,0.895-2,2-2h14c1.105,0,2,0.895,2,2V60z"/>
			</g>
			<g>
				<path fill="#00325A" d="M56,39h-5c1.657,0,3-1.343,3-3c0-0.552-0.448-1-1-1h-9c-2.209,0-4,1.791-4,4h-2v14h2.535
					c0.692,1.196,1.984,2,3.465,2h8V43h4V39z"/>
			</g>
		</g>
		<g>
			<g>
				<g>
					<path fill="#F0C8A0" d="M60,46c0-1.105-0.895-2-2-2c1.105,0,2-0.895,2-2c0-1.105-0.895-2-2-2h-7c1.657,0,3-1.343,3-3
						c0-0.552-0.448-1-1-1h-9c-2.209,0-4,1.791-4,4h-4v14h4.535c0.692,1.196,1.984,2,3.465,2h14c1.105,0,2-0.895,2-2
						c0-1.105-0.895-2-2-2c1.105,0,2-0.895,2-2c0-1.105-0.895-2-2-2C59.105,48,60,47.105,60,46z"/>
				</g>
				<g>
					<path fill="#D2AA82" d="M59.929,46.5C59.971,46.339,60,46.174,60,46c0-1.105-0.895-2-2-2h-6v1h6
						C58.931,45,59.706,45.639,59.929,46.5z"/>
				</g>
				<g>
					<path fill="#D2AA82" d="M59.929,50.5C59.971,50.339,60,50.174,60,50c0-1.105-0.895-2-2-2h-6v1h6
						C58.931,49,59.706,49.639,59.929,50.5z"/>
				</g>
				<g>
					<path fill="#D2AA82" d="M59.929,54.5C59.971,54.339,60,54.174,60,54c0-1.105-0.895-2-2-2h-6v1h6
						C58.931,53,59.706,53.639,59.929,54.5z"/>
				</g>
				<g>
					<path fill="#D2AA82" d="M59.929,42.5C59.971,42.339,60,42.174,60,42c0-1.105-0.895-2-2-2H44v1h14
						C58.931,41,59.706,41.639,59.929,42.5z"/>
				</g>
				<g>
					<path fill="#D2AA82" d="M43.859,37H53c0.425,0,0.783,0.267,0.928,0.641C53.973,37.434,54,37.221,54,37c0-0.552-0.448-1-1-1h-9
						c-2.209,0-4,1.791-4,4l0,0C40.446,38.278,41.997,37,43.859,37z"/>
				</g>
			</g>
			<g>
				<path fill="#C80A50" d="M4,56V38h30c1.105,0,2,0.895,2,2v14c0,1.105-0.895,2-2,2H4z"/>
			</g>
			<g>
				<path fill="#A00028" d="M11,38v2.535C9.804,41.227,9,42.519,9,44v8h12v4h4v-5c0,1.657,1.343,3,3,3c0.552,0,1-0.448,1-1v-9
					c0-2.209-1.791-4-4-4v-2H11z"/>
			</g>
		</g>
		<g>
			<g>
				<path fill="#F0C8A0" d="M24,40v-4H10v4.535C8.804,41.227,8,42.519,8,44v14c0,1.105,0.895,2,2,2s2-0.895,2-2c0,1.105,0.895,2,2,2
					s2-0.895,2-2c0,1.105,0.895,2,2,2s2-0.895,2-2c0,1.105,0.895,2,2,2s2-0.895,2-2v-7c0,1.657,1.343,3,3,3c0.552,0,1-0.448,1-1v-9
					C28,41.791,26.209,40,24,40z"/>
			</g>
			<g>
				<path fill="#D2AA82" d="M17.5,59.929C17.661,59.971,17.826,60,18,60c1.105,0,2-0.895,2-2v-6h-1v6
					C19,58.931,18.361,59.706,17.5,59.929z"/>
			</g>
			<g>
				<path fill="#D2AA82" d="M13.5,59.929C13.661,59.971,13.826,60,14,60c1.105,0,2-0.895,2-2v-6h-1v6
					C15,58.931,14.361,59.706,13.5,59.929z"/>
			</g>
			<g>
				<path fill="#D2AA82" d="M9.5,59.929C9.661,59.971,9.826,60,10,60c1.105,0,2-0.895,2-2v-6h-1v6
					C11,58.931,10.361,59.706,9.5,59.929z"/>
			</g>
			<g>
				<path fill="#D2AA82" d="M21.5,59.929C21.661,59.971,21.826,60,22,60c1.105,0,2-0.895,2-2V44h-1v14
					C23,58.931,22.361,59.706,21.5,59.929z"/>
			</g>
			<g>
				<path fill="#D2AA82" d="M27,43.859V53c0,0.425-0.267,0.783-0.641,0.928C26.566,53.973,26.779,54,27,54c0.552,0,1-0.448,1-1v-9
					c0-2.209-1.791-4-4-4l0,0C25.722,40.446,27,41.997,27,43.859z"/>
			</g>
		</g>
		<g>
			<rect x="27" y="10" fill="#D2AA82" width="1" height="14"/>
		</g>
		<g>
			<rect x="40" y="27" fill="#D2AA82" width="14" height="1"/>
		</g>
		<g>
			<rect x="10" y="36" fill="#D2AA82" width="14" height="1"/>
		</g>
		<g>
			<rect x="36" y="40" fill="#D2AA82" width="1" height="14"/>
		</g>
	</g>
</g>
</svg>
