<?xml version="1.0" standalone="no"?>
<!DOCTYPE svg PUBLIC "-//W3C//DTD SVG 20010904//EN"
 "http://www.w3.org/TR/2001/REC-SVG-20010904/DTD/svg10.dtd">
<svg version="1.0" xmlns="http://www.w3.org/2000/svg"
 width="400.000000pt" height="400.000000pt" viewBox="0 0 400.000000 400.000000"
 preserveAspectRatio="xMidYMid meet">

<g transform="translate(0.000000,400.000000) scale(0.100000,-0.100000)"
fill="#000000" stroke="none">
<path d="M1845 3794 c-16 -2 -66 -9 -110 -15 -102 -13 -283 -60 -383 -100
-118 -47 -277 -133 -382 -207 -141 -99 -347 -309 -442 -452 -137 -205 -232
-433 -280 -672 -31 -153 -33 -479 -4 -633 107 -577 462 -1047 981 -1299 249
-121 490 -176 775 -176 285 0 526 55 775 176 519 252 874 722 981 1299 29 154
27 480 -4 633 -48 239 -143 467 -280 672 -95 143 -301 353 -442 452 -219 154
-476 260 -739 305 -84 14 -386 26 -446 17z m422 -295 c292 -50 556 -185 772
-394 170 -165 282 -329 361 -532 222 -567 89 -1197 -345 -1628 -316 -314 -786
-478 -1215 -424 -198 24 -329 63 -505 149 -629 306 -963 1015 -800 1697 69
287 206 525 426 738 348 337 818 479 1306 394z"/>
<path d="M2640 3100 c0 -6 11 -33 25 -60 14 -27 25 -61 25 -74 0 -24 -28 -106
-36 -106 -2 0 -14 11 -28 25 -36 36 -69 32 -117 -15 -23 -22 -44 -40 -48 -40
-4 0 -14 -13 -24 -29 -18 -31 -24 -88 -13 -136 l6 -30 -74 0 -74 0 -34 55
c-34 53 -35 57 -29 128 7 78 -1 127 -12 81 -4 -15 -11 -58 -17 -97 -9 -62 -7
-76 10 -117 28 -64 26 -68 -20 -45 -36 18 -41 26 -65 101 -48 153 -67 160 -34
13 13 -60 30 -108 42 -121 24 -27 23 -27 -23 -10 -19 7 -59 38 -89 70 -50 53
-71 68 -71 49 0 -4 23 -36 51 -71 43 -53 64 -69 125 -97 41 -18 74 -38 74 -44
0 -14 -3 -13 -159 15 -483 87 -913 122 -1171 96 -122 -13 -141 -20 -124 -49
31 -50 272 -199 414 -255 80 -31 260 -67 340 -67 52 0 71 6 157 51 105 56 108
56 453 85 l75 6 21 -46 c18 -40 19 -46 5 -40 -96 42 -203 -12 -402 -204 -135
-129 -201 -213 -295 -368 -70 -115 -229 -432 -221 -440 10 -10 410 200 522
274 138 91 222 166 346 305 130 147 172 239 147 328 l-7 25 44 -20 c31 -15 45
-27 45 -41 0 -11 -9 -110 -20 -219 l-20 -199 -48 -81 -47 -81 1 -105 c1 -148
30 -266 99 -404 86 -173 198 -336 231 -336 19 0 24 26 36 177 18 251 -11 613
-83 1028 -42 249 -43 255 -31 255 6 0 25 -32 43 -72 27 -58 45 -81 98 -125 36
-29 69 -53 73 -53 19 0 4 21 -50 72 -32 29 -64 69 -70 87 -16 45 -15 47 7 27
21 -19 149 -56 196 -56 44 0 17 15 -83 46 -76 23 -84 28 -102 65 -11 21 -17
39 -13 39 5 0 31 -9 58 -19 28 -11 61 -18 75 -16 100 15 160 29 160 37 0 8
-126 4 -172 -6 -4 0 -31 14 -60 33 l-54 34 1 72 0 72 72 -5 72 -5 35 37 c50
55 52 56 75 77 30 27 27 66 -9 99 l-29 27 45 18 c62 23 84 22 147 -9 59 -28
67 -31 67 -17 0 13 -119 71 -144 71 -12 0 -46 -11 -76 -23 l-55 -22 -66 66
-65 66 19 44 c28 64 26 116 -8 177 -26 49 -45 66 -45 42z"/>
<path d="M3150 550 c0 -5 0 -13 0 -17 -1 -5 14 -10 32 -13 l33 -5 3 -97 c2
-89 4 -98 22 -98 18 0 20 9 22 98 l3 97 33 3 c24 2 32 8 32 23 0 17 -8 19 -90
19 -53 0 -90 -4 -90 -10z"/>
<path d="M3360 440 c0 -113 1 -120 20 -120 18 0 20 7 20 76 0 76 12 92 24 32
18 -91 26 -109 49 -106 18 2 26 16 44 83 l21 80 1 -83 c1 -81 2 -83 24 -80 21
3 22 6 22 118 l0 115 -35 0 -35 0 -19 -74 c-22 -81 -23 -81 -51 22 -16 55 -17
57 -51 57 l-34 0 0 -120z"/>
</g>
</svg>
